<svg version="1.1" xmlns="http://www.w3.org/2000/svg" xmlns:xlink="http://www.w3.org/1999/xlink" width="455" height="444"><defs/><g><text fill="#eeeeee" stroke="none" font-family="Arial" font-size="24px" font-style="normal" font-weight="normal" text-decoration="none" x="0" y="0">UNREGISTERED</text><text fill="#eeeeee" stroke="none" font-family="Arial" font-size="24px" font-style="normal" font-weight="normal" text-decoration="none" x="0" y="30">UNREGISTERED</text><text fill="#eeeeee" stroke="none" font-family="Arial" font-size="24px" font-style="normal" font-weight="normal" text-decoration="none" x="0" y="60">UNREGISTERED</text><text fill="#eeeeee" stroke="none" font-family="Arial" font-size="24px" font-style="normal" font-weight="normal" text-decoration="none" x="0" y="90">UNREGISTERED</text><text fill="#eeeeee" stroke="none" font-family="Arial" font-size="24px" font-style="normal" font-weight="normal" text-decoration="none" x="0" y="120">UNREGISTERED</text><text fill="#eeeeee" stroke="none" font-family="Arial" font-size="24px" font-style="normal" font-weight="normal" text-decoration="none" x="0" y="150">UNREGISTERED</text><text fill="#eeeeee" stroke="none" font-family="Arial" font-size="24px" font-style="normal" font-weight="normal" text-decoration="none" x="0" y="180">UNREGISTERED</text><text fill="#eeeeee" stroke="none" font-family="Arial" font-size="24px" font-style="normal" font-weight="normal" text-decoration="none" x="0" y="210">UNREGISTERED</text><text fill="#eeeeee" stroke="none" font-family="Arial" font-size="24px" font-style="normal" font-weight="normal" text-decoration="none" x="0" y="240">UNREGISTERED</text><text fill="#eeeeee" stroke="none" font-family="Arial" font-size="24px" font-style="normal" font-weight="normal" text-decoration="none" x="0" y="270">UNREGISTERED</text><text fill="#eeeeee" stroke="none" font-family="Arial" font-size="24px" font-style="normal" font-weight="normal" text-decoration="none" x="0" y="300">UNREGISTERED</text><text fill="#eeeeee" stroke="none" font-family="Arial" font-size="24px" font-style="normal" font-weight="normal" text-decoration="none" x="0" y="330">UNREGISTERED</text><text fill="#eeeeee" stroke="none" font-family="Arial" font-size="24px" font-style="normal" font-weight="normal" text-decoration="none" x="0" y="360">UNREGISTERED</text><text fill="#eeeeee" stroke="none" font-family="Arial" font-size="24px" font-style="normal" font-weight="normal" text-decoration="none" x="0" y="390">UNREGISTERED</text><text fill="#eeeeee" stroke="none" font-family="Arial" font-size="24px" font-style="normal" font-weight="normal" text-decoration="none" x="0" y="420">UNREGISTERED</text><text fill="#eeeeee" stroke="none" font-family="Arial" font-size="24px" font-style="normal" font-weight="normal" text-decoration="none" x="200" y="0">UNREGISTERED</text><text fill="#eeeeee" stroke="none" font-family="Arial" font-size="24px" font-style="normal" font-weight="normal" text-decoration="none" x="200" y="30">UNREGISTERED</text><text fill="#eeeeee" stroke="none" font-family="Arial" font-size="24px" font-style="normal" font-weight="normal" text-decoration="none" x="200" y="60">UNREGISTERED</text><text fill="#eeeeee" stroke="none" font-family="Arial" font-size="24px" font-style="normal" font-weight="normal" text-decoration="none" x="200" y="90">UNREGISTERED</text><text fill="#eeeeee" stroke="none" font-family="Arial" font-size="24px" font-style="normal" font-weight="normal" text-decoration="none" x="200" y="120">UNREGISTERED</text><text fill="#eeeeee" stroke="none" font-family="Arial" font-size="24px" font-style="normal" font-weight="normal" text-decoration="none" x="200" y="150">UNREGISTERED</text><text fill="#eeeeee" stroke="none" font-family="Arial" font-size="24px" font-style="normal" font-weight="normal" text-decoration="none" x="200" y="180">UNREGISTERED</text><text fill="#eeeeee" stroke="none" font-family="Arial" font-size="24px" font-style="normal" font-weight="normal" text-decoration="none" x="200" y="210">UNREGISTERED</text><text fill="#eeeeee" stroke="none" font-family="Arial" font-size="24px" font-style="normal" font-weight="normal" text-decoration="none" x="200" y="240">UNREGISTERED</text><text fill="#eeeeee" stroke="none" font-family="Arial" font-size="24px" font-style="normal" font-weight="normal" text-decoration="none" x="200" y="270">UNREGISTERED</text><text fill="#eeeeee" stroke="none" font-family="Arial" font-size="24px" font-style="normal" font-weight="normal" text-decoration="none" x="200" y="300">UNREGISTERED</text><text fill="#eeeeee" stroke="none" font-family="Arial" font-size="24px" font-style="normal" font-weight="normal" text-decoration="none" x="200" y="330">UNREGISTERED</text><text fill="#eeeeee" stroke="none" font-family="Arial" font-size="24px" font-style="normal" font-weight="normal" text-decoration="none" x="200" y="360">UNREGISTERED</text><text fill="#eeeeee" stroke="none" font-family="Arial" font-size="24px" font-style="normal" font-weight="normal" text-decoration="none" x="200" y="390">UNREGISTERED</text><text fill="#eeeeee" stroke="none" font-family="Arial" font-size="24px" font-style="normal" font-weight="normal" text-decoration="none" x="200" y="420">UNREGISTERED</text><text fill="#eeeeee" stroke="none" font-family="Arial" font-size="24px" font-style="normal" font-weight="normal" text-decoration="none" x="400" y="0">UNREGISTERED</text><text fill="#eeeeee" stroke="none" font-family="Arial" font-size="24px" font-style="normal" font-weight="normal" text-decoration="none" x="400" y="30">UNREGISTERED</text><text fill="#eeeeee" stroke="none" font-family="Arial" font-size="24px" font-style="normal" font-weight="normal" text-decoration="none" x="400" y="60">UNREGISTERED</text><text fill="#eeeeee" stroke="none" font-family="Arial" font-size="24px" font-style="normal" font-weight="normal" text-decoration="none" x="400" y="90">UNREGISTERED</text><text fill="#eeeeee" stroke="none" font-family="Arial" font-size="24px" font-style="normal" font-weight="normal" text-decoration="none" x="400" y="120">UNREGISTERED</text><text fill="#eeeeee" stroke="none" font-family="Arial" font-size="24px" font-style="normal" font-weight="normal" text-decoration="none" x="400" y="150">UNREGISTERED</text><text fill="#eeeeee" stroke="none" font-family="Arial" font-size="24px" font-style="normal" font-weight="normal" text-decoration="none" x="400" y="180">UNREGISTERED</text><text fill="#eeeeee" stroke="none" font-family="Arial" font-size="24px" font-style="normal" font-weight="normal" text-decoration="none" x="400" y="210">UNREGISTERED</text><text fill="#eeeeee" stroke="none" font-family="Arial" font-size="24px" font-style="normal" font-weight="normal" text-decoration="none" x="400" y="240">UNREGISTERED</text><text fill="#eeeeee" stroke="none" font-family="Arial" font-size="24px" font-style="normal" font-weight="normal" text-decoration="none" x="400" y="270">UNREGISTERED</text><text fill="#eeeeee" stroke="none" font-family="Arial" font-size="24px" font-style="normal" font-weight="normal" text-decoration="none" x="400" y="300">UNREGISTERED</text><text fill="#eeeeee" stroke="none" font-family="Arial" font-size="24px" font-style="normal" font-weight="normal" text-decoration="none" x="400" y="330">UNREGISTERED</text><text fill="#eeeeee" stroke="none" font-family="Arial" font-size="24px" font-style="normal" font-weight="normal" text-decoration="none" x="400" y="360">UNREGISTERED</text><text fill="#eeeeee" stroke="none" font-family="Arial" font-size="24px" font-style="normal" font-weight="normal" text-decoration="none" x="400" y="390">UNREGISTERED</text><text fill="#eeeeee" stroke="none" font-family="Arial" font-size="24px" font-style="normal" font-weight="normal" text-decoration="none" x="400" y="420">UNREGISTERED</text><g transform="translate(-27,-86) scale(1,1)"><path fill="#C0C0C0" stroke="none" d="M 273 199 L 469 199 Q 479 199 479 209 L 479 397 Q 479 407 469 407 L 273 407 Q 263 407 263 397 L 263 209 Q 263 199 273 199 Z" opacity="0.2"/></g><g transform="translate(-27,-86) scale(1,1)"><path fill="#ffffff" stroke="none" d="M 266 192 L 462 192 Q 472 192 472 202 L 472 390 Q 472 400 462 400 L 266 400 Q 256 400 256 390 L 256 202 Q 256 192 266 192 Z"/></g><g transform="translate(-27,-86) scale(1,1)"><path fill="none" stroke="#000000" d="M 266 192 L 462 192 Q 472 192 472 202 L 472 390 Q 472 400 462 400 L 266 400 Q 256 400 256 390 L 256 202 Q 256 192 266 192 Z" stroke-miterlimit="10"/></g><g transform="translate(-27,-86) scale(1,1)"><path fill="none" stroke="#000000" d="M 256 215 L 472 215" stroke-miterlimit="10"/></g><g transform="translate(-27,-86) scale(1,1)"><g><path fill="none" stroke="none"/><text fill="#000000" stroke="none" font-family="Arial" font-size="13px" font-style="normal" font-weight="normal" text-decoration="none" x="302.240478515625" y="236.5">E-Commerce System</text></g></g><g transform="translate(-27,-86) scale(1,1)"><g><path fill="none" stroke="none"/><text fill="#000000" stroke="none" font-family="Arial" font-size="13px" font-style="normal" font-weight="normal" text-decoration="none" x="364" y="209.5"></text></g></g><g transform="translate(-27,-86) scale(1,1)"><g><path fill="none" stroke="none"/><text fill="#000000" stroke="none" font-family="Arial" font-size="13px" font-style="normal" font-weight="normal" text-decoration="none" x="357" y="210">0</text></g></g><g transform="translate(-27,-86) scale(1,1)"><rect fill="#C0C0C0" stroke="none" x="111" y="103" width="106.4326171875" height="32" opacity="0.2"/></g><g transform="translate(-27,-86) scale(1,1)"><rect fill="#ffffff" stroke="none" x="104" y="96" width="106.4326171875" height="32"/></g><g transform="translate(-27,-86) scale(1,1)"><path fill="none" stroke="#000000" d="M 104 96 L 210.4326171875 96 L 210.4326171875 128 L 104 128 L 104 96 Z Z" stroke-miterlimit="10"/></g><g transform="translate(-27,-86) scale(1,1)"><g><path fill="none" stroke="none"/><text fill="#000000" stroke="none" font-family="Arial" font-size="13px" font-style="normal" font-weight="normal" text-decoration="none" x="157.21630859375" y="113.5"></text></g></g><g transform="translate(-27,-86) scale(1,1)"><g><path fill="none" stroke="none"/><text fill="#000000" stroke="none" font-family="Arial" font-size="13px" font-style="normal" font-weight="normal" text-decoration="none" x="157.21630859375" y="113.5"></text></g></g><g transform="translate(-27,-86) scale(1,1)"><g><path fill="none" stroke="none"/><text fill="#000000" stroke="none" font-family="Arial" font-size="13px" font-style="normal" font-weight="normal" text-decoration="none" x="143.49267578125" y="118.5">User</text></g></g><g transform="translate(-27,-86) scale(1,1)"><g><path fill="none" stroke="none"/><text fill="#000000" stroke="none" font-family="Arial" font-size="13px" font-style="normal" font-weight="normal" text-decoration="none" x="-0.5" y="12.5"></text></g></g><g transform="translate(-27,-86) scale(1,1)"><rect fill="#C0C0C0" stroke="none" x="111" y="495" width="106.4326171875" height="32" opacity="0.2"/></g><g transform="translate(-27,-86) scale(1,1)"><rect fill="#ffffff" stroke="none" x="104" y="488" width="106.4326171875" height="32"/></g><g transform="translate(-27,-86) scale(1,1)"><path fill="none" stroke="#000000" d="M 104 488 L 210.4326171875 488 L 210.4326171875 520 L 104 520 L 104 488 Z Z" stroke-miterlimit="10"/></g><g transform="translate(-27,-86) scale(1,1)"><g><path fill="none" stroke="none"/><text fill="#000000" stroke="none" font-family="Arial" font-size="13px" font-style="normal" font-weight="normal" text-decoration="none" x="157.21630859375" y="505.5"></text></g></g><g transform="translate(-27,-86) scale(1,1)"><g><path fill="none" stroke="none"/><text fill="#000000" stroke="none" font-family="Arial" font-size="13px" font-style="normal" font-weight="normal" text-decoration="none" x="157.21630859375" y="505.5"></text></g></g><g transform="translate(-27,-86) scale(1,1)"><g><path fill="none" stroke="none"/><text fill="#000000" stroke="none" font-family="Arial" font-size="13px" font-style="normal" font-weight="normal" text-decoration="none" x="138.792236328125" y="510.5">Admin</text></g></g><g transform="translate(-27,-86) scale(1,1)"><g><path fill="none" stroke="none"/><text fill="#000000" stroke="none" font-family="Arial" font-size="13px" font-style="normal" font-weight="normal" text-decoration="none" x="-8.5" y="-27.5"></text></g></g><g transform="translate(-27,-86) scale(1,1)"><path fill="none" stroke="#000000" d="M 210 488 L 288 488 M 288 488 A 8 8 0 0 0 296 480 L 296 400" stroke-miterlimit="10"/></g><g transform="translate(-27,-86) scale(1,1)"><path fill="#000000" stroke="none" d="M 300.209517756016 410.16267485762415 L 296 400 L 291.790482243984 410.16267485762415"/></g><g transform="translate(-27,-86) scale(1,1)"><path fill="none" stroke="#000000" d="M 300.209517756016 410.16267485762415 L 296 400 L 291.790482243984 410.16267485762415 L 300.209517756016 410.16267485762415" stroke-miterlimit="10"/></g><g transform="translate(-27,-86) scale(1,1)"><g><path fill="none" stroke="none"/><text fill="#000000" stroke="none" font-family="Arial" font-size="13px" font-style="normal" font-weight="normal" text-decoration="none" x="266.5" y="507.5">Add/Update Category</text></g></g><g transform="translate(-27,-86) scale(1,1)"><path fill="none" stroke="#000000" d="M 256 320 L 168 320 M 168 320 A 8 8 0 0 0 160 328 L 160 488" stroke-miterlimit="10"/></g><g transform="translate(-27,-86) scale(1,1)"><path fill="#000000" stroke="none" d="M 155.790482243984 477.83732514237585 L 160 488 L 164.209517756016 477.83732514237585"/></g><g transform="translate(-27,-86) scale(1,1)"><path fill="none" stroke="#000000" d="M 155.790482243984 477.83732514237585 L 160 488 L 164.209517756016 477.83732514237585 L 155.790482243984 477.83732514237585" stroke-miterlimit="10"/></g><g transform="translate(-27,-86) scale(1,1)"><g><path fill="none" stroke="none"/><text fill="#000000" stroke="none" font-family="Arial" font-size="13px" font-style="normal" font-weight="normal" text-decoration="none" x="78.5" y="372.5">Order Details</text></g></g><g transform="translate(-27,-86) scale(1,1)"><path fill="none" stroke="#000000" d="M 157 128 L 157 288 M 157 288 A 8 8 0 0 0 165 296 L 256 296" stroke-miterlimit="10"/></g><g transform="translate(-27,-86) scale(1,1)"><path fill="#000000" stroke="none" d="M 245.83732514237585 300.209517756016 L 256 296 L 245.83732514237585 291.790482243984"/></g><g transform="translate(-27,-86) scale(1,1)"><path fill="none" stroke="#000000" d="M 245.83732514237585 300.209517756016 L 256 296 L 245.83732514237585 291.790482243984 L 245.83732514237585 300.209517756016" stroke-miterlimit="10"/></g><g transform="translate(-27,-86) scale(1,1)"><g><path fill="none" stroke="none"/><text fill="#000000" stroke="none" font-family="Arial" font-size="13px" font-style="normal" font-weight="normal" text-decoration="none" x="56.72998046875" y="259.5">Order Accept</text></g></g><g transform="translate(-27,-86) scale(1,1)"><path fill="none" stroke="#000000" d="M 319 192 L 319 120 M 319 120 A 8 8 0 0 0 311 112 L 210 112" stroke-miterlimit="10"/></g><g transform="translate(-27,-86) scale(1,1)"><path fill="#000000" stroke="none" d="M 220.16267485762415 107.79048224398402 L 210 112 L 220.16267485762415 116.20951775601598"/></g><g transform="translate(-27,-86) scale(1,1)"><path fill="none" stroke="#000000" d="M 220.16267485762415 107.79048224398402 L 210 112 L 220.16267485762415 116.20951775601598 L 220.16267485762415 107.79048224398402" stroke-miterlimit="10"/></g><g transform="translate(-27,-86) scale(1,1)"><g><path fill="none" stroke="none"/><text fill="#000000" stroke="none" font-family="Arial" font-size="13px" font-style="normal" font-weight="normal" text-decoration="none" x="238.5" y="156.5">Order Invoice</text></g></g></g></svg>